<?xml version="1.0" standalone="no"?>
<!DOCTYPE svg PUBLIC "-//W3C//DTD SVG 20010904//EN"
 "http://www.w3.org/TR/2001/REC-SVG-20010904/DTD/svg10.dtd">
<svg version="1.0" xmlns="http://www.w3.org/2000/svg"
 width="130.000000pt" height="130.000000pt" viewBox="0 0 130.000000 130.000000"
 preserveAspectRatio="xMidYMid meet">
<metadata>
Created by potrace 1.11, written by Peter Selinger 2001-2013
</metadata>
<g transform="translate(0.000000,130.000000) scale(0.100000,-0.100000)"
fill="#000000" stroke="none">
<path d="M555 1280 c-140 -19 -252 -76 -361 -185 -66 -65 -89 -96 -122 -165
-51 -109 -66 -173 -65 -285 1 -176 58 -311 188 -440 131 -132 265 -188 445
-188 111 0 194 20 289 68 215 109 344 322 344 565 0 180 -56 314 -188 446 -65
66 -96 89 -165 122 -124 58 -243 79 -365 62z m25 -305 l0 -55 -72 0 -73 0 80
-80 79 -80 -39 -40 -39 -40 -78 77 -78 78 0 -68 0 -67 -55 0 -55 0 0 165 0
165 165 0 165 0 0 -55z m450 -111 l0 -165 -52 3 -53 3 -3 69 -3 70 -80 -80
-79 -79 -37 38 -38 37 80 80 80 80 -68 0 -67 0 0 55 0 55 160 0 160 0 0 -166z
m-495 -414 l-80 -80 68 0 67 0 0 -49 0 -49 -72 -7 c-40 -3 -113 -5 -163 -3
l-90 3 -3 163 -2 162 60 0 60 0 0 -67 0 -68 77 78 78 77 40 -40 40 -40 -80
-80z m365 73 l0 67 55 0 55 0 0 -166 0 -167 -37 7 c-21 3 -93 6 -160 6 l-123
0 0 50 0 50 67 0 68 0 -80 80 -79 80 39 40 39 40 78 -77 78 -78 0 68z"/>
</g>
</svg>
